<?xml version="1.0" standalone="no"?><!DOCTYPE svg PUBLIC "-//W3C//DTD SVG 1.1//EN" "http://www.w3.org/Graphics/SVG/1.1/DTD/svg11.dtd"><svg t="1722490412286" class="icon" viewBox="0 0 1024 1024" version="1.1" xmlns="http://www.w3.org/2000/svg" p-id="1501" xmlns:xlink="http://www.w3.org/1999/xlink" width="200" height="200"><path d="M547.395 430.002c0 3.756 0 7.318 0 11.276-8.106 0-16.097 0-24.386 0 0-3.643 0-7.206 0-11.276 7.83 0 15.817 0 24.386 0z" p-id="1502"></path><path d="M372.253 516.146c3.097 5.385 5.904 10.27 8.827 15.351 6.615-3.729 13.935-7.959 20.113-11.44 0 0-0.021 2.032-0.016 2.354 0.012 0.618 0.014 1.234 0.021 1.85v29.217l-21.559 0.024-0.051 18.165h9.339c3.089-0.004 6.217-0.006 9.348 0h21.528l-0.268-46.748 0.031-16.131c0 0 22.339-12.59 26.808-15.21-3.127-5.434-5.937-10.313-8.788-15.263-5.949 3.258-11.482 6.288-18.195 9.964 0-1.034 0-2.153-0.002-3.3v-20.093c1.767 0.011 19.848 0.11 25.313 0.103v-17.239c-1.691-0.003-13.445-0.030-17.194 0.011-6.752 0.067-8.195-0.051-8.195-0.051l-0.279-23.542-17.43-0.425-0.051 23.914c0 0-14.418-0.043-21.661 0.024l0.051 17.347c4.596 0 20.019-0.034 21.509-0.038v33.887l-29.201 17.267z" p-id="1503"></path><path d="M609.788 553.78c0 6.281 0 12.019 0 17.67 37.665 0 74.858 0 112.327 0 0-5.911 0-11.515 0-16.182-14.3-8.067-28.193-15.904-42.083-23.738l-2.090-1.386c15.865 0 34.184 0 50.13 0 0-6.302 0-11.876 0-18.231-14.168 0-27.929 0-43.478 0 15.47-8.705 29.292-16.483 43.455-24.452 0-4.806 0-10.563 0-16.132-39.804 0-79.167 0-118.595 0 0 5.938 0 11.388 0 17.859 30.15 0 59.739 0 89.332 0-8.158 5.751-42.97 22.867-42.97 22.867s6.761-0.965 0 0l-19.943-0.052c-3.421-0.057-6.847-0.040-10.28 0h-15.885v3.141h0.022c0 5.242 0 9.865 0 14.997 8.482 0 24.588 0.037 24.588 0.037l21.641-0.037c0 0 32.283 19.54 39.529 23.66z" p-id="1504"></path><path d="M838.471 483.141c-5.693-10.1-11.075-19.641-16.798-29.791z" p-id="1505"></path><path d="M804.919 456.574h0.005v-0.002l-0.005 0.002z" p-id="1506"></path><path d="M821.873 453.292v0z" p-id="1507"></path><path d="M821.673 453.35c0.124-0.037 0.2-0.060 0.2-0.060z" p-id="1508"></path><path d="M821.673 453.35c-1.553 0.461-11.983 3.567-11.983 3.567v0.050c4.637 10.664 19.799 41.749 19.799 41.749l-2.163 4.814c0 0-11.485 20.731-17.316 31.344 4.478 2.702 8.439 5.088 12.676 7.637 5.271-9.419 10.357-18.504 15.741-28.126 5.387 9.426 10.361 18.128 15.422 26.982 4.782-2.878 8.877-5.343 13.178-7.928-6.061-10.683-11.962-20.826-17.535-31.147-0.981-1.812-2.175-3.577-2.175-3.577s13.848-25.646 20.489-37.695c6.963 11.722 22.492 37.695 22.492 37.695l-2.576 5.252c0 0-11.928 20.199-18.198 30.905 4.594 2.581 8.926 5.013 13.53 7.6 5.58-9.389 10.861-18.276 16.548-27.843 5.857 9.816 11.198 18.771 16.671 27.945 4.92-2.788 9.291-5.265 13.99-7.93-6.257-10.586-12.175-20.951-18.477-31.071-2.205-3.542-3.044-4.89-3.044-4.89s14.729-26.076 21.851-38.256l-11.45-7.195-19.404 29.914c0 0-13.547-19.657-20.321-29.914l-11.655 6.857c0 0-8.446-4.793-12.685-6.861-5.845 10.531-10.172 18.328-16.599 29.912z" p-id="1509"></path><path d="M804.919 456.574l-0.284-8.767c0 0 4.455-0.015 8.909-0.021v-0.006h5.243c-0.004-0.006-0.007-0.015-0.014-0.021 17.594 0 34.446 0 50.91 0v-0.006h13.334c16.118-0.029 52.587 0.006 52.587 0.006s0 1.976-0.011 7.173c-0.057 30.8-0.043 98.798-0.043 98.798s-1.748 0.054-6.435 0.023c-7.296-0.046-29.248 0-29.248 0s0.035 2.017-0.016 6.848l0.053 11.128c0 0 22.863 0.024 31.574 0.029 7.211 0 14.42 0 21.903 0 0-46.426-0.024-91.996 0.040-137.568 0.005-4.51 0-4.403 0-4.403s-105.278-0.047-154.924 0.005c-1.002 0.001-3.876-0.001-6.518-0.002v-0.003h-5.168v3.082c-0.011 1.030-0.015 2.261-0.006 3.675 0.002 0.432 0.004 0.878 0.006 1.323v115.843c-0.902 0.013-3.007 0.037-6.613 0.040-7.296 0.006-14.365-0.029-21.852 0-4.165 0.017-6.097-0.002-6.63-0.011h0.005v-80.029c0.023-11.104 0.048-21.449 0.067-29.517 0.019-7.635-0.017-8.553-0.017-8.553s-0.036 0-0.050 0v-0.002h-2.231c-9.299-0.013-44.84-0.040-60.62 0.132-5.484 0.060-8.136-0.029-8.136-0.029l-0.050-12.465h-24.789v12.465l-70.715-0.051c0 0-0.048 0.872-0.024 9.055 0.093 34.042 0.172 109.027 0.172 109.027s-1.378 0.083-6.103 0.082c-21.682-0.011-43.364 0-65.047-0.006-3.124-0.002-4.852 0.013-5.461 0.019v-24.743c0 0 18.216-10.36 25.185-14.068 7.238-3.851 14.484-7.698 21.928-11.653-4.51-7.159-8.589-13.631-12.817-20.338-11.359 5.99-22.348 11.784-34.561 18.225 0-11.469-0.137-21.338 0.066-31.198 0.084-4.107 0.049-5.113 0.049-5.113s24.488 0.048 33.403-0.031c7.592-0.067 8.474 0.001 8.474 0.001l-0.038-17.198-41.992-0.024v-24.449h-17.861v21.617c0.021 1.010 0.012 1.918 0.040 2.856h-41.991l-0.071 17.224c0 0 2.018-0.012 5.769-0.050 5.799-0.062 32.95 0.038 36.076 0.051v46.324c-3.581 1.871-30.546 15.965-41.544 21.826 4.387 6.973 8.474 13.471 12.761 20.283 9.309-4.857 18.383-9.592 28.628-14.939 0 10.087-0.048 33.397-0.048 33.397l113.357-0.421c0 0-0.138-73.853-0.298-108.301-0.041-9.038-0.020-9.513-0.020-9.513s41.091 0.016 56.897 0.012c22.089-0.002 74.049-0.060 74.049-0.060s0 0.021-0.001 0.098h0.106v118.062c0.82 0.006 2.353 0.006 5.159-0.015 19.894-0.155 39.694 0 59.548 0 4.878 0 6.247 0 6.247 0l-0.303-107.736c0 0 0.020-3.023 0.012-5.92h-0.001v-0.48c-0.005-0.347-0.007-0.689-0.012-1.022z" p-id="1510"></path><path d="M188.573 532.182l3.728 9.649c0.816-0.75 1.735-2.251 2.761-4.501 1.368-3.010 2.552-6.374 3.549-10.095 0.632-2.285 1.1-4.58 1.434-6.882-5.197 2.66-11.222 5.705-13.765 6.621 1.317 5.134-0.702 1.758 2.288 5.212z" p-id="1511"></path><path d="M184.883 550.708c-0.528-0.11-1.013-0.233-1.507-0.354l-34.53 34.104-2.075 1.383c-0.174 0.365-0.325 0.675-0.457 0.935-1.338 2.774-0.996 1.632-1.42 1.632-1.161-1.16-0.928-0.928-2.322-2.555l-53.903-93.634c-8.402-14.418-10.688-20.399-11.329-23.73-0.456-2.083-0.28-3.187-0.354-4.429-0.185-1.408-0.79-3.153-2.957-6.695l0.153-0.206c-0.052-0.088-0.097-0.165-0.153-0.254l0.819-0.648 2.433-3.3h1.734l0.587-0.466-0.207-0.238c12.995-3.953 19.275-10.915 42.727-13.469 12.59-1.518 21.918-1.242 31.917 0.483 0.005-0.005 0.012-0.016 0.017-0.022 0.464-0.518 1.325-1.117 2.568-1.788-1.427-0.252-3.071-0.511-4.993-0.764-9.526-1.161-17.658-1.393-27.184-0.466-29.042 3.719-33.692 11.153-46.47 14.407l-3.715 3.483c-4.183 2.091-1.396 0-3.487 2.789 0 0.464 4.415 19.75 4.878 21.143 3.252 9.060 65.521 120.353 67.612 121.745 6.738-0.928 9.293-7.667 13.011-12.313 9.169-11.919 25.563-29.918 38.496-37.096-1.443 0.006-2.597 0.168-3.445 0.488-1.118 0.547-3.269 0.491-6.443-0.163z" p-id="1512"></path><path d="M232.572 445.754c-0.718 0.429-1.493 0.88-2.324 1.348 24.201 9.167 49.338 21.747 62.881 26.527 5.112 1.626 24.629 10.922 26.953 14.408 6.738 3.252-1.626-1.163 3.949 1.393-0.095 0.159-0.182 0.299-0.27 0.445 0.015 0.005 0.024 0.013 0.041 0.018-2.21 3.686-2.753 3.649-3.027 3.827-0.221 0.645-0.59 2.413-2.085 8.022-0.034-0.007-0.068-0.016-0.105-0.022-0.044 0.165-0.083 0.318-0.127 0.487-14.58-3.473-30.774-6.473-44.68 1.309-0.575 3.367 2.948 1.047-0.859 8.215-0.019 0.038-0.046 0.076-0.064 0.112-0.060 0.122-0.105 0.224-0.168 0.353-2.323 4.881-9.526 9.526-16.73 7.667-7.202-2.091-4.181-5.345-8.132-5.111l-29.275 10.922c-2.787-2.324-3.020-3.022-5.575-5.112-1.446-1.231-2.083-2.075-2.441-2.645-0.066 0.707-0.143 1.444-0.241 2.254-0.559 4.597-1.525 9.193-2.894 13.79-0.625 2.189-1.059 3.747-1.307 4.681-0.251 0.929-1.058 2.709-2.428 5.335-2.428 3.963-5.13 6.062-8.094 6.346 0.685 0.688 0.798 0.841 1.838 2.304l10.457 23.7c3.020-4.183 2.32-10.689 2.555-15.799 0.466-5.808 0.931-11.618 1.161-17.658l32.992 10.685c-4.416-9.059-14.871-14.171-19.75-22.536 4.878-2.32 9.294-4.181 14.404-6.505 12.083-5.344 6.505-2.556 15.568 0.232 19.284 5.81 23.932-16.96 24.629-17.658 5.112-3.488 13.242-4.182 20.678-3.488 11.618 0.93 18.356 5.345 21.375 1.861 2.555-4.881-0.698-2.788 2.091-8.599 2.555-5.112 3.020 0.466 3.487-8.596-15.452-12.206-64.259-30.834-94.48-42.514z" p-id="1513"></path><path d="M149.080 584.225l34.296-33.871c-2.485-0.608-4.584-1.36-6.245-2.272-5.604-3.175-10.088-7.609-13.453-13.298-0.377-0.662-0.745-1.289-1.108-1.903-6.597 5.8-12.019 11.611-14.423 16.027-0.464-0.232-0.929-0.929-1.161-0.695l-3.717-2.789c-9.293-11.616-59.944-79.227-67.612-86.431 0.929-3.482 1.86-3.020 3.949-6.040h-0.587l-4.167 3.3-0.668 0.906c2.266 3.748 2.716 5.435 2.803 6.9 0.176 1.354-0.038 2.404 0.354 4.429 0.747 3.42 3.202 9.49 11.329 23.264l54.134 93.634c1.393 1.627 1.161 1.393 2.322 2.556 0.397-0.198 0.121 0.947 1.188-1.166 0.131-0.271 0.273-0.569 0.44-0.923l0.017-0.012c0.069-0.147 0.139-0.288 0.217-0.456l2.090-1.161z" p-id="1514"></path><path d="M176.942 538.558c2.117 1.86 4.639 3.201 7.566 4.024 2.925 0.82 5.261 0.737 7.005-0.248 0.173-0.057 0.355-0.172 0.54-0.31l-3.712-9.612c-2.789-3.482-0.93 0-2.323-5.344 0.077-0.024 0.179-0.067 0.266-0.099-0.013-0.048-0.020-0.084-0.033-0.135 2.363-0.787 8.469-3.926 13.82-6.665 0.246-1.719 0.425-3.442 0.503-5.17 0.121-2.675 0.001-4.735-0.354-6.201-2.511 1.014-5.066 2.136-7.699 3.397-7.211 3.438-16.326 9.527-24.517 16.112 3.241 4.438 6.222 7.864 8.935 10.247z" p-id="1515"></path><path d="M212.348 449.665c-4.796 3.884-7.379 5.828-7.753 5.828s-1.807 1.040-4.297 3.119c-2.493 1.862-5.449 3.695-8.873 5.497-3.427 1.806-6.257 2.929-8.501 3.367-4.361 0.877-6.538 2.027-6.538 3.447 0 0.439 0.403 1.067 1.215 1.886 0.808 0.82 2.457 1.148 4.951 0.985 2.49-0.163 4.857-0.137 7.099 0.083 1.991 0.111 3.176 0.519 3.549 1.233 0.373 0.714-0.188 1.671-1.681 2.872-1.744 1.534-3.241 3.367-4.483 5.499-1.248 2.135-1.868 3.857-1.868 5.17 0 0.985 0.217 1.751 0.655 2.3 0.434 0.55 1.463 1.587 3.083 3.119 2.243 1.751 3.331 2.956 3.271 3.612-0.065 0.657-1.466 1.206-4.205 1.642-2.242 0.329-4.983 1.068-8.221 2.216-3.241 1.148-5.826 2.026-7.753 2.626-1.932 0.602-4.015 1.422-6.26 2.461-2.242 1.040-3.737 1.558-4.483 1.558-0.747 0-1.932 0.329-3.549 0.986-3.115 1.313-4.672 3.394-4.672 6.238 0 0.878 0.59 2.544 1.775 5.007 1.181 2.462 2.522 4.681 4.015 6.649 1.172 1.632 2.423 3.576 3.747 5.812 1.741-1.532 3.565-3.064 5.437-4.568-0.924-1.265-1.868-2.602-2.834-4.032-2.742-3.941-3.923-6.347-3.549-7.222 0.374-0.875 2.617-1.913 6.725-3.118 4.359-1.313 8.934-2.791 13.731-4.433 4.793-1.642 8.156-2.678 10.088-3.118 1.928-0.435 3.083-0.657 3.457-0.657 1.617-0.435 2.894-0.024 3.829 1.233 0.325 0.438 0.578 1.059 0.768 1.842 2.973-1.201 5.882-2.242 8.757-3.117-0.324-1.372-0.265-2.266 0.19-2.666 0.561-0.491 2.396-0.956 5.512-1.394 2.243-0.329 4.297-0.82 6.166-1.477 4.111-1.422 5.48-2.9 4.111-4.433-0.5-0.435-2.648-0.683-6.446-0.737-3.801-0.053-7.255 0.082-10.369 0.411-1.868 0.22-3.021 0.303-3.457 0.247-0.438-0.053-1.090-0.465-1.961-1.233-0.998-1.091-2.894-2.215-5.699-3.365-2.802-1.148-4.454-1.995-4.951-2.544-0.5-0.435-0.438-1.010 0.188-1.723 0.622-0.711 2.676-2.543 6.166-5.498 2.738-2.407 4.419-4.294 5.045-5.664 0.622-1.368 0.498-2.817-0.373-4.35-0.373-0.875-1.341-1.749-2.894-2.626-1.558-0.875-2.835-1.313-3.829-1.313-0.373 0-0.625-0.053-0.748-0.163-1.248-0.328-0.373-1.313 2.617-2.956 8.094-4.597 12.454-6.895 13.078-6.895 0.248 0 1.71-0.82 4.389-2.462 2.676-1.642 4.578-2.735 5.699-3.283 2.118-0.875 4.859-2.242 8.221-4.104 0.214-0.118 0.412-0.232 0.62-0.349-3.541-1.342-7.060-2.61-10.522-3.77-1.081 1.105-3.524 3.205-7.382 6.331z" p-id="1516"></path><path d="M319.848 488.501c-0.19 0.21-0.299 0.375-0.375 0.52-0.322-0.033-0.717-0.057-1.251-0.057-1.161 0-2.787-0.233-3.951-0.465-10.222-1.626-17.191-2.090-27.877-0.233-16.495 2.789-18.355 6.043-26.721 15.335-20.151-2.779-34.976-2.697-50.692 2.083 0.074 0.32 0.165 0.656 0.283 1.029 0.373 1.862 0.747 3.394 1.121 4.597 0.388 1.031 0.451 3.082 0.191 6.127 0.322 0.528 0.89 1.419 2.626 2.897 2.557 2.091 3.022 2.556 5.577 4.881l29.275-10.918c3.951 0 0.928 3.252 8.132 5.109 7.147 1.844 14.283-2.941 16.666-7.554 3.406-6.966-0.154-4.361 0.762-8.244 0.053-0.031 0.11-0.053 0.163-0.084 0.020-0.124 0.035-0.239 0.067-0.38 13.909-7.882 29.898-4.894 44.739-1.42 1.898-7.267 1.862-7.788 2.189-8 0.32-0.926 0.347 0.461 2.987-3.846-5.488-2.511 2.809 1.869-3.91-1.374z" p-id="1517"></path><path d="M194.774 550.383c0.036-0.001 0.067-0.003 0.105-0.003 0.232 0 0.458-0.035 0.684-0.057-0.076-0.077-0.157-0.157-0.251-0.251-0.176 0.095-0.361 0.214-0.537 0.313z" p-id="1518"></path><path d="M166.294 436.614c-0.998-1.532-3.549-1.585-7.66-0.163-0.762 0.352-1.423 0.684-2.010 1.001 4.813 0.853 7.083 1.664 8.508 2.149 1.057-1.224 1.451-2.224 1.161-2.987z" p-id="1519"></path><path d="M192.056 542.024l0.212 0.549c0.088-0.057 0.165-0.112 0.255-0.172l-0.22-0.573c-0.084 0.079-0.165 0.135-0.248 0.197z" p-id="1520"></path><path d="M200.355 436.082c0.77-0.442 1.443-0.921 1.995-1.439 0.87-0.875 1.307-2.817 1.307-5.828 0-3.010-0.438-5.278-1.307-6.814-1.619-2.516-4.296-4.65-8.034-6.403-1.494-0.765-4.080-1.175-7.753-1.233-3.675-0.053-6.323 0.193-7.941 0.738-1.248 0.549-1.932 1.313-2.054 2.3-0.124 0.55-0.124 0.878 0 0.985 0.122 0.111 0.683 0.111 1.681 0 3.112-0.657 5.045-0.875 5.793-0.657 0.747 0.22 2.243 1.148 4.483 2.791 6.725 5.036 7.035 8.976 0.935 11.82-1.964 0.887-3.251 1.775-3.875 2.661 6.686-0.488 11.752 0.514 14.771 1.076z" p-id="1521"></path><path d="M213.667 439.011l2.324 0.233c4.281 1.745 9.99 3.963 16.579 6.51 1.911-1.148 3.426-2.173 4.529-3.066 3.61-2.735 5.418-5.091 5.418-7.059 0-0.657-0.5-1.503-1.494-2.544-0.998-1.038-2.18-1.777-3.549-2.215-2.242-1.203-5.73-1.148-10.463 0.163l-7.286 1.806c-5.566 1.357-12.393 2.678-15.655 3.962l3.557 0.121 6.040 2.090z" p-id="1522"></path><path d="M151.628 450.238c-0.935 1.971-1.837 4.243-2.709 6.814-0.873 2.572-2.428 5.828-4.672 9.769-2.12 4.051-3.145 6.841-3.083 8.372 0.061 1.534 1.401 2.462 4.015 2.791 1.617 0.328 2.958 0.111 4.015-0.657 1.056-0.766 2.209-2.243 3.457-4.433 1.494-2.516 2.832-4.485 4.015-5.91 1.181-1.421 3.27-3.173 6.257-5.254 2.99-2.078 5.793-3.612 8.408-4.597 2.738-1.092 4.578-1.971 5.512-2.626 0.936-0.657 2.803-1.394 5.604-2.216 2.802-0.82 4.951-1.558 6.446-2.215 1.494-0.657 4.359-1.642 8.594-2.956 4.231-1.313 7.315-2.352 9.247-3.119 1.928-0.765 7.008-1.477 10.373-2.135 0.103-0.028 0.188-0.046 0.288-0.068-4.454-1.378-11.208-2.543-15.307-3.414-0.166 0.018-0.333 0.036-0.49 0.036-0.873 0-3.862 1.148-8.968 3.447-5.109 2.3-9.559 4.185-13.357 5.664-3.801 1.477-7.506 3.176-11.117 5.091-3.614 1.917-5.793 2.819-6.538 2.709-0.747-0.107-1.248-1.477-1.494-4.104-0.124-2.626 0.062-4.623 0.561-5.992 0.441-1.217 1.408-2.552 2.84-3.986-3.299-0.79-6.429-1.456-9.49-1.984-0.674 0.773-1.010 2.296-1.010 4.576 0.002 2.296-0.465 4.432-1.398 6.401z" p-id="1523"></path></svg>